<?xml version="1.0" standalone="no"?>
<!DOCTYPE svg PUBLIC "-//W3C//DTD SVG 1.1//EN" "http://www.w3.org/Graphics/SVG/1.1/DTD/svg11.dtd" >
<svg xmlns="http://www.w3.org/2000/svg">
<metadata>
Created by FontPrep 20130207 at Thu May 21 17:16:48 2015
 By diMac
Copyright (c) Double Alex Font Studio, 1998, 2006. All rights reserved.
</metadata>
<defs>
<font id="b2e92dab55097356fe2ff16db759e350" horiz-adv-x='1024' >
  <font-face 
    font-family="TornadoCyr"
    font-weight="400"
    font-stretch="normal"
    units-per-em="2048"
    panose-1="2 0 5 4 4 0 0 2 0 4"
    ascent="1638"
    descent="-410"
    x-height="1044"
    cap-height="1458"
    bbox="-76 -461 2171 1827"
    underline-thickness="102"
    underline-position="-102"
    unicode-range="U+000D-2265"
  />
<missing-glyph horiz-adv-x="2048" 
 />
    <glyph glyph-name=".notdef" horiz-adv-x="2048" 
 />
    <glyph glyph-name=".null" horiz-adv-x="0" 
 />
    <glyph glyph-name=".null" horiz-adv-x="0" 
 />
    <glyph glyph-name="nonmarkingreturn" horiz-adv-x="681" 
 />
    <glyph glyph-name="CR" unicode="&#xd;" horiz-adv-x="569" 
 />
    <glyph glyph-name="space" unicode=" " horiz-adv-x="569" 
 />
    <glyph glyph-name="exclam" unicode="!" horiz-adv-x="681" 
d="M231 0v217h218v-217h-218zM231 1458h218v-475l-27 -584h-164l-27 584v475z" />
    <glyph glyph-name="quotedbl" unicode="&#x22;" horiz-adv-x="819" 
d="M324 967h-129l-21 491h170zM625 967h-129l-21 491h170z" />
    <glyph glyph-name="numbersign" unicode="#" 
d="M444 872l-38 -286h256l38 286h-256zM1010 586v-146h-222l-61 -440h-147l59 440h-254l-61 -440h-148l60 440h-203v146h223l41 286h-205v146h225l64 440h147l-63 -440h258l59 440h150l-62 -440h199v-146h-221l-37 -286h199z" />
    <glyph glyph-name="dollar" unicode="$" 
d="M766 393q0 80 -41 130t-119 91v-448q74 23 117 85t43 142zM334 1096q0 -107 158 -199v401q-158 -49 -158 -202zM969 384q1 -150 -99 -260t-264 -136v-203h-114v190h-27q-160 0 -305 60v186q115 -78 303 -78q25 0 29 2v529q-86 42 -136 72t-109 81q-116 99 -116 258
t101 262t260 128v194h114v-186q147 -4 281 -51v-177q-106 59 -258 60h-23v-477q14 -14 121 -68q121 -68 181 -152t61 -234z" />
    <glyph glyph-name="percent" unicode="%" horiz-adv-x="1777" 
d="M389 1346q-145 0 -145 -276t144 -275q144 0 144 276q0 196 -62 248q-32 27 -81 27zM1386 664q-143 0 -143 -276t145 -275q145 0 146 274q0 199 -64 250q-33 27 -84 27zM702 1071q0 -182 -74 -298t-240 -116q-165 0 -240 116t-74 298q0 410 314 410t314 -410zM512 -45
h-143l895 1548h141zM1388 -23q-166 0 -240 116t-75 294q0 414 315 414t316 -414q0 -178 -75 -294t-241 -116z" />
    <glyph glyph-name="ampersand" unicode="&#x26;" horiz-adv-x="1366" 
d="M565 121q154 0 291 147l-369 428q-106 -63 -163 -132q-58 -68 -58 -180t88 -188t211 -75zM608 1337q-82 0 -137 -51t-55 -145q0 -47 24 -99t46 -82q24 -30 69 -79q236 113 236 268q-1 188 -183 188zM532 -25q-212 0 -340 110t-129 296q0 293 332 426q-53 67 -81 105
t-54 104q-27 66 -27 131q0 162 109 249q108 87 266 87t260 -82t103 -240q0 -236 -326 -385l316 -360q88 131 100 372h178q-18 -287 -168 -503l254 -285h-242l-127 147q-152 -172 -424 -172z" />
    <glyph glyph-name="quotesingle" unicode="'" horiz-adv-x="569" 
d="M350 967h-129l-20 491h170z" />
    <glyph glyph-name="parenleft" unicode="(" horiz-adv-x="659" 
d="M123 631q0 239 88 451t252 466h164q-99 -176 -155 -296t-107 -294t-51 -362t82 -406q84 -218 231 -477h-164q-162 244 -251 462t-89 456z" />
    <glyph glyph-name="parenright" unicode=")" horiz-adv-x="659" 
d="M537 631q0 -238 -88 -451t-252 -467h-164q98 176 154 296q159 341 159 657q0 188 -83 406t-230 476h164q162 -244 251 -462t89 -455z" />
    <glyph glyph-name="asterisk" unicode="*" 
d="M983 1096l-317 -70l215 -252l-144 -96l-168 278l-168 -278l-141 96l217 252l-321 70l53 164l307 -125l-29 323h172l-26 -323l299 125z" />
    <glyph glyph-name="plus" unicode="+" horiz-adv-x="1228" 
d="M1133 432h-433v-432h-172v432h-432v172h432v432h172v-432h433v-172z" />
    <glyph glyph-name="comma" unicode="," horiz-adv-x="569" 
d="M399 217l-172 -489h-172l127 489h217z" />
    <glyph glyph-name="hyphen" unicode="-" horiz-adv-x="681" 
d="M602 475h-522v152h522v-152z" />
    <glyph glyph-name="period" unicode="." horiz-adv-x="569" 
d="M393 0h-217v217h217v-217z" />
    <glyph glyph-name="slash" unicode="/" horiz-adv-x="569" 
d="M623 1483l-504 -1508h-172l504 1508h172z" />
    <glyph glyph-name="zero" unicode="0" 
d="M550 1321q-73 0 -128 -44q-160 -128 -160 -548q0 -287 72 -441q29 -62 85 -106t131 -45q75 0 130 44q55 45 85 107q73 152 73 441q0 159 -29 292q-37 177 -132 255q-54 44 -127 45zM550 -23q-116 1 -205 49t-141 122q-139 200 -143 581q0 225 59 405q34 103 86 177
t140 122t203 48t204 -48t141 -122q144 -205 144 -581t-142 -582q-52 -76 -141 -123q-89 -48 -205 -48z" />
    <glyph glyph-name="one" unicode="1" 
d="M530 0v1239l-227 -197l-102 129l350 287h172v-1458h-193z" />
    <glyph glyph-name="two" unicode="2" 
d="M80 0v203l274 260q295 281 369 452q37 86 37 178t-78 160t-197 68q-186 0 -358 -98v172q197 86 389 86q192 -1 320 -107q129 -106 129 -301q0 -274 -416 -665l-262 -248h702v-160h-909z" />
    <glyph glyph-name="three" unicode="3" 
d="M408 137q160 -1 269 63t109 208t-106 210t-266 66h-127v160h98q142 0 255 45q62 25 99 77t37 124q0 117 -85 174t-239 57t-311 -82v178q180 63 374 63t328 -98t134 -290q0 -129 -87 -214t-222 -114v-8q150 -25 236 -120q86 -96 85 -228q0 -132 -46 -215
q-117 -216 -535 -216q-134 0 -320 56v182q160 -78 320 -78z" />
    <glyph glyph-name="four" unicode="4" 
d="M700 1296h-8l-479 -804h487v804zM893 334v-334h-193v334h-682v164l603 960h272v-966h188v-158h-188z" />
    <glyph glyph-name="five" unicode="5" 
d="M453 -23q-170 0 -312 48v184q135 -72 293 -72t263 83q105 82 105 230t-98 231q-100 83 -260 83t-286 -51v745h798v-160h-618v-397q82 23 199 23q197 0 331 -129t136 -324q0 -231 -156 -363t-395 -131z" />
    <glyph glyph-name="six" unicode="6" 
d="M566 758q-128 0 -204 -85t-76 -212t72 -225q70 -98 200 -98t202 90t72 220t-69 220t-197 90zM565 -23q-483 0 -483 697q0 426 187 641q146 166 435 166q156 0 265 -43v-172q-106 55 -263 55t-255 -79q-183 -147 -187 -472l6 4q127 141 325 141q197 1 317 -123t120 -339
t-130 -345t-337 -131z" />
    <glyph glyph-name="seven" unicode="7" 
d="M78 1298v160h913v-162l-545 -1296h-210l559 1298h-717z" />
    <glyph glyph-name="eight" unicode="8" 
d="M559 137q119 -1 201 63t83 189t-107 196q-59 39 -128 70q-70 31 -88 39q-124 -69 -147 -87q-25 -19 -59 -52q-58 -56 -58 -168q0 -113 92 -181t211 -69zM799 1134q0 90 -79 138t-175 49q-96 0 -179 -56q-83 -57 -83 -147q1 -90 73 -149t230 -138q125 93 169 153t44 150z
M1044 387q0 -205 -141 -307t-348 -103t-353 105t-147 297q0 274 314 385v6q-276 102 -277 365q0 149 130 247t332 98t325 -96t123 -226t-66 -219t-207 -165q315 -111 315 -387z" />
    <glyph glyph-name="nine" unicode="9" 
d="M551 1321q-129 0 -201 -91t-72 -220t70 -219q68 -91 196 -91t204 85t76 212t-72 226q-72 98 -201 98zM515 543q-197 0 -317 124q-120 125 -120 339t130 344t337 131q483 0 483 -697q0 -423 -187 -641q-147 -166 -435 -166q-154 0 -267 43v179q119 -61 271 -61t249 78
q183 147 187 472l-6 -4q-127 -141 -325 -141z" />
    <glyph glyph-name="colon" unicode=":" horiz-adv-x="569" 
d="M393 0h-217v217h217v-217zM393 827h-217v217h217v-217z" />
    <glyph glyph-name="semicolon" unicode=";" horiz-adv-x="569" 
d="M399 217l-172 -489h-172l127 489h217zM393 827h-217v217h217v-217z" />
    <glyph glyph-name="less" unicode="&#x3c;" horiz-adv-x="1228" 
d="M1135 -16l-1041 458v152l1041 459v-172l-822 -363l822 -362v-172z" />
    <glyph glyph-name="equal" unicode="=" horiz-adv-x="1228" 
d="M1133 219h-1037v172h1037v-172zM1133 645h-1037v172h1037v-172z" />
    <glyph glyph-name="greater" unicode="&#x3e;" horiz-adv-x="1228" 
d="M1135 442l-1041 -458v172l824 362l-824 363v172l1041 -459v-152z" />
    <glyph glyph-name="question" unicode="?" horiz-adv-x="968" 
d="M344 0v217h217v-217h-217zM543 434v-35h-178v39q0 102 28 168q29 66 125 174t128 176q32 66 32 138q0 108 -70 164t-188 57q-190 0 -318 -78v182q162 63 348 63t308 -98q123 -98 123 -278q0 -78 -35 -156q-36 -78 -64 -114t-90 -106t-85 -103q-64 -88 -64 -193z" />
    <glyph glyph-name="at" unicode="@" horiz-adv-x="1638" 
d="M858 985q-117 0 -204 -111t-85 -239q0 -86 46 -140t122 -55q119 0 203 120t84 245q0 80 -48 130t-118 50zM1070 283q-58 1 -94 31t-40 87h-6q-115 -119 -238 -119t-210 97q-87 96 -87 233q0 207 128 370t325 163q154 0 237 -148l37 115h146l-146 -534q-20 -70 -18 -95
q0 -51 41 -51q100 0 184 122t84 282q0 238 -163 374q-162 136 -414 136t-419 -178t-167 -454t170 -439t442 -162q139 0 265 52t210 142l86 -82q-103 -119 -251 -185t-316 -65q-336 0 -552 208t-216 541t217 546t543 213q288 0 496 -174t208 -449q0 -137 -53 -252
q-53 -116 -132 -184t-159 -104t-138 -37z" />
    <glyph glyph-name="A" unicode="A" horiz-adv-x="1406" 
d="M700 1282l-299 -750h596zM1208 0l-149 373h-721l-150 -373h-198l616 1458h203l608 -1458h-209z" />
    <glyph glyph-name="B" unicode="B" horiz-adv-x="1167" 
d="M473 672h-137v-512h160q369 0 368 246q0 188 -174 239q-93 27 -217 27zM836 1058q0 240 -281 240h-219v-467h129q218 0 295 62q76 62 76 165zM512 0h-369v1458h385q500 0 500 -364q0 -272 -295 -344v-9q150 -14 242 -107t92 -241q0 -393 -555 -393z" />
    <glyph glyph-name="C" unicode="C" horiz-adv-x="1290" 
d="M883 -25q-350 0 -575 209q-224 209 -224 545t229 545t570 209q217 0 352 -60v-194q-68 39 -165 63t-179 23q-260 0 -433 -167t-173 -421t176 -419t422 -165q81 0 189 25t165 57v-190q-137 -60 -354 -60z" />
    <glyph glyph-name="D" unicode="D" horiz-adv-x="1478" 
d="M643 1290h-313v-1122h276q586 0 586 567q0 263 -154 409t-395 146zM606 0h-469v1458h490q340 0 552 -194t212 -542t-208 -535t-577 -187z" />
    <glyph glyph-name="E" unicode="E" 
d="M145 0v1458h879v-168h-686v-450h594v-170h-594v-502h690v-168h-883z" />
    <glyph glyph-name="F" unicode="F" horiz-adv-x="1024" 
d="M336 1290v-450h559v-170h-559v-670h-193v1458h818v-168h-625z" />
    <glyph glyph-name="G" unicode="G" horiz-adv-x="1478" 
d="M897 -25q-350 0 -576 209q-227 209 -227 544t232 545t573 210q236 0 430 -72v-194q-162 98 -422 98t-435 -168t-175 -421t177 -418t425 -165q154 0 262 31v422h-313v156h506v-709q-195 -68 -457 -68z" />
    <glyph glyph-name="H" unicode="H" horiz-adv-x="1478" 
d="M1149 0v670h-819v-670h-193v1458h193v-618h819v618h192v-1458h-192z" />
    <glyph glyph-name="I" unicode="I" horiz-adv-x="497" 
d="M152 0v1458h192v-1458h-192z" />
    <glyph glyph-name="J" unicode="J" horiz-adv-x="702" 
d="M164 -25q-98 0 -164 25v164q61 -20 129 -21q131 0 184 73t54 212v1030h188v-1083q0 -176 -91 -288t-300 -112z" />
    <glyph glyph-name="K" unicode="K" horiz-adv-x="1331" 
d="M340 750v-750h-190v1458h190v-688h8l682 688h248l-700 -686l774 -772h-254l-750 750h-8z" />
    <glyph glyph-name="L" unicode="L" horiz-adv-x="1024" 
d="M143 0v1458h193v-1290h670v-168h-863z" />
    <glyph glyph-name="M" unicode="M" horiz-adv-x="1677" 
d="M1350 0v1212h-7l-501 -591h-4l-502 591h-8v-1212h-193v1458h230l477 -577l475 577h225v-1458h-192z" />
    <glyph glyph-name="N" unicode="N" horiz-adv-x="1554" 
d="M330 1214v-1214h-193v1458h260l822 -1198h8v1198h192v-1458h-250l-831 1214h-8z" />
    <glyph glyph-name="O" unicode="O" horiz-adv-x="1669" 
d="M836 1315q-254 0 -402 -173t-147 -411q-1 -238 149 -413t402 -175t398 173t146 414t-146 413t-400 172zM837 1483q339 0 543 -214t205 -545t-203 -540t-544 -209t-547 210t-207 539t207 544t546 215z" />
    <glyph glyph-name="P" unicode="P" horiz-adv-x="1122" 
d="M567 1290h-235v-528h229q129 0 215 61t86 197t-88 204q-88 66 -207 66zM582 594h-250v-594h-191v1458h416q506 0 506 -432q0 -220 -134 -326t-347 -106z" />
    <glyph glyph-name="Q" unicode="Q" horiz-adv-x="1669" 
d="M836 1315q-254 0 -402 -173t-147 -411q-1 -238 149 -413t402 -175t398 174t146 414t-146 412t-400 172zM84 724q0 329 207 544t546 215t543 -214t205 -540q0 -256 -122 -443t-341 -263l312 -293h-240l-262 250q-66 -4 -98 -5q-336 0 -543 210t-207 539z" />
    <glyph glyph-name="R" unicode="R" horiz-adv-x="1155" 
d="M530 1290h-196v-526h168q164 0 244 69t81 193q0 124 -76 195q-78 69 -221 69zM334 612v-612h-193v1458h365q524 0 524 -434q0 -133 -93 -250t-247 -135l453 -639h-246l-416 612h-147z" />
    <glyph glyph-name="S" unicode="S" horiz-adv-x="997" 
d="M397 -25q-125 0 -303 60v184q166 -76 302 -76t228 65q91 65 91 178t-99 192q-45 37 -167 96q-121 59 -167 88q-135 86 -177 186q-26 63 -25 144q0 184 131 287t315 103t322 -50v-183q-154 66 -281 66q-286 0 -284 -209q0 -90 68 -142t219 -125t223 -141
q125 -119 125 -295q0 -217 -147 -323t-374 -105z" />
    <glyph glyph-name="T" unicode="T" horiz-adv-x="1228" 
d="M711 1290v-1290h-191v1290h-524v168h1239v-168h-524z" />
    <glyph glyph-name="U" unicode="U" horiz-adv-x="1478" 
d="M1348 596q0 -297 -172 -459t-434 -162q-261 0 -436 162t-175 459v862h193v-842q0 -211 110 -342t306 -131t306 131t109 342v842h193v-862z" />
    <glyph glyph-name="V" unicode="V" horiz-adv-x="1382" 
d="M797 0h-238l-559 1458h213l467 -1286l6 2l498 1284h200z" />
    <glyph glyph-name="W" unicode="W" horiz-adv-x="2123" 
d="M1642 0h-247l-328 1282h-8l-330 -1282h-256l-483 1458h211l399 -1261h6l324 1261h268l328 -1261h6l399 1261h201z" />
    <glyph glyph-name="X" unicode="X" horiz-adv-x="1290" 
d="M1067 0l-434 631l-424 -631h-229l534 760l-487 698h231l393 -569l393 569h218l-490 -696l537 -762h-242z" />
    <glyph glyph-name="Y" unicode="Y" horiz-adv-x="1298" 
d="M743 0h-192v612l-551 846h225l426 -670l422 670h223l-553 -846v-612z" />
    <glyph glyph-name="Z" unicode="Z" horiz-adv-x="1052" 
d="M31 0v174l760 1116h-736v168h953v-174l-756 -1116h770v-168h-991z" />
    <glyph glyph-name="bracketleft" unicode="[" horiz-adv-x="569" 
d="M522 -287h-375v1835h375v-135h-205v-1565h205v-135z" />
    <glyph glyph-name="backslash" unicode="\" horiz-adv-x="569" 
d="M623 -25h-172l-504 1508h172z" />
    <glyph glyph-name="bracketright" unicode="]" horiz-adv-x="569" 
d="M422 -287h-375v135h205v1565h-205v135h375v-1835z" />
    <glyph glyph-name="asciicircum" unicode="^" horiz-adv-x="1228" 
d="M1110 618h-176l-320 662l-319 -662h-176l416 840h159z" />
    <glyph glyph-name="underscore" unicode="_" horiz-adv-x="1024" 
d="M1024 -256h-1024v102h1024v-102z" />
    <glyph glyph-name="grave" unicode="`" horiz-adv-x="493" 
d="M406 1186h-130l-266 295h211z" />
    <glyph glyph-name="a" unicode="a" horiz-adv-x="1069" 
d="M620 520q-340 0 -340 -222q0 -75 62 -125q61 -50 135 -50t160 42t137 99v219q-96 37 -154 37zM952 0h-159v141h-5q-46 -47 -82 -77t-104 -59q-68 -30 -139 -30q-179 -1 -277 89t-98 241q0 82 35 147q35 66 85 102q134 98 339 97q125 0 227 -41v80q0 231 -254 232
q-166 0 -311 -123v153q155 117 353 117t294 -104t96 -320v-645z" />
    <glyph glyph-name="b" unicode="b" horiz-adv-x="1251" 
d="M969 522q0 172 -92 286t-250 114q-229 0 -322 -205v-404q31 -45 48 -67t57 -57q72 -66 223 -66q152 -1 244 113t92 286zM653 1069q227 1 367 -161t141 -398q0 -236 -144 -385q-143 -150 -353 -150t-363 168h-4v-143h-170v1458h178v-561h4q51 72 147 122t197 50z" />
    <glyph glyph-name="c" unicode="c" horiz-adv-x="985" 
d="M664 123q102 0 233 76v-168q-131 -55 -254 -56q-241 0 -399 160q-158 161 -158 397t156 387t405 150q115 0 238 -49v-164q-127 63 -228 66q-176 0 -278 -115q-103 -115 -103 -279t106 -284t282 -121z" />
    <glyph glyph-name="d" unicode="d" horiz-adv-x="1251" 
d="M623 922q-158 0 -250 -114t-92 -286t92 -286t243 -113q151 0 224 66q39 35 56 57t48 67v404q-92 205 -321 205zM1122 0h-170v143h-4q-154 -168 -362 -168t-354 150q-144 149 -144 385t140 398t368 161q100 0 196 -50t148 -122h4v561h178v-1458z" />
    <glyph glyph-name="e" unicode="e" horiz-adv-x="1138" 
d="M862 616q0 126 -79 216t-207 90t-211 -94q-82 -94 -91 -212h588zM1053 481h-779q0 -154 112 -256t259 -102q87 0 193 33t147 65v-180q-178 -66 -348 -66q-268 0 -412 152q-143 151 -143 397t141 396t365 150t345 -144q120 -143 120 -377v-68z" />
    <glyph glyph-name="f" unicode="f" horiz-adv-x="692" 
d="M557 1335q-180 0 -180 -235v-56h309v-147h-309v-897h-180v897h-197v147h197v39q0 186 71 293q72 106 264 107q98 0 160 -15v-147q-31 14 -135 14z" />
    <glyph glyph-name="g" unicode="g" horiz-adv-x="1251" 
d="M266 523q0 -153 95 -265t239 -111q98 1 180 49t129 115v424q-35 78 -114 132q-80 54 -193 55q-158 0 -247 -123t-89 -276zM1087 96q0 -238 -146 -372t-423 -134q-156 0 -362 70v176q207 -98 377 -98t273 101t103 270v43h-4q-151 -152 -357 -152t-339 154t-133 368
t137 381q137 166 353 166t349 -162h5v137h167v-948z" />
    <glyph glyph-name="h" unicode="h" horiz-adv-x="1138" 
d="M1012 0h-181v578q0 182 -48 263t-177 81q-82 0 -146 -36t-90 -69t-59 -86v-731h-180v1458h180v-555h4q45 63 131 115t203 51q362 0 363 -428v-641z" />
    <glyph glyph-name="i" unicode="i" horiz-adv-x="454" 
d="M326 1249h-197v209h197v-209zM317 0h-180v1044h180v-1044z" />
    <glyph glyph-name="j" unicode="j" horiz-adv-x="454" 
d="M326 1249h-197v209h197v-209zM319 -12q0 -212 -67 -300q-29 -38 -84 -66q-54 -28 -124 -28t-120 9v155q33 -6 78 -6q137 0 137 217v1075h180v-1056z" />
    <glyph glyph-name="k" unicode="k" horiz-adv-x="1048" 
d="M307 0h-180v1458h180v-887h4l461 473h225l-483 -475l543 -569h-232l-514 553h-4v-553z" />
    <glyph glyph-name="l" unicode="l" horiz-adv-x="454" 
d="M317 0h-180v1458h180v-1458z" />
    <glyph glyph-name="m" unicode="m" horiz-adv-x="1710" 
d="M1583 0h-178v657q0 264 -195 265q-98 0 -157 -52t-107 -139v-731h-180v657q0 264 -195 265q-162 0 -264 -160v-762h-180v1044h168v-145h4q61 78 134 124t176 46t185 -51t117 -156h4q47 100 137 154t177 53q354 0 354 -369v-700z" />
    <glyph glyph-name="n" unicode="n" horiz-adv-x="1138" 
d="M1012 0h-181v578q0 182 -48 263t-177 81q-82 0 -146 -36t-90 -69t-59 -86v-731h-180v1044h180v-141h4q45 63 131 115t203 51q362 0 363 -428v-641z" />
    <glyph glyph-name="o" unicode="o" horiz-adv-x="1251" 
d="M625 123q162 1 256 115t94 285t-97 285t-253 114t-253 -114q-98 -114 -98 -285t94 -285t257 -115zM624 1069q250 1 397 -153q146 -154 146 -388q1 -234 -149 -394q-150 -159 -394 -159t-393 159q-149 160 -149 394t146 388t396 153z" />
    <glyph glyph-name="p" unicode="p" horiz-adv-x="1251" 
d="M627 123q158 -1 250 113t92 286t-92 286t-242 114t-225 -65q-39 -34 -58 -56q-18 -23 -47 -66v-413q113 -199 322 -199zM1161 534q0 -236 -140 -397q-140 -162 -368 -162q-98 1 -193 47t-151 113h-4v-520h-178v1429h170v-147h4q159 172 365 172t351 -149
q144 -150 144 -386z" />
    <glyph glyph-name="q" unicode="q" horiz-adv-x="1251" 
d="M285 524q0 -174 92 -288t250 -113q225 -1 321 196v416q-92 140 -196 170q-55 16 -125 17q-166 0 -254 -112t-88 -286zM1126 -385h-178v526h-4q-51 -69 -147 -117t-197 -49q-227 0 -368 162q-140 162 -140 399t141 385t369 148q195 0 350 -170h4l17 145h153v-1429z" />
    <glyph glyph-name="r" unicode="r" horiz-adv-x="720" 
d="M596 907q-197 0 -299 -196v-711h-180v1044h168v-170h4q53 82 132 138t147 57q68 0 132 -14v-164q-43 16 -104 16z" />
    <glyph glyph-name="s" unicode="s" horiz-adv-x="819" 
d="M737 295q1 -156 -107 -238t-272 -82t-274 56v170q55 -35 131 -57q77 -22 143 -22t126 40q60 39 61 117q0 43 -31 79q-30 36 -62 54t-100 51t-98 50t-80 54q-94 71 -92 189q0 154 102 234t240 79q138 0 264 -43v-160q-36 18 -110 36t-136 20q-62 0 -115 -34
q-55 -34 -55 -102t61 -108q37 -25 118 -64q83 -39 115 -57q116 -64 150 -145q21 -51 21 -117z" />
    <glyph glyph-name="t" unicode="t" horiz-adv-x="716" 
d="M512 -25q-303 0 -303 312v610h-189v147h189v244l178 58v-302h311v-147h-311v-592q0 -84 44 -133t114 -49q111 0 172 33v-152q-96 -29 -205 -29z" />
    <glyph glyph-name="u" unicode="u" horiz-adv-x="1138" 
d="M1008 0h-172v170h-5q-129 -195 -321 -195t-288 113q-95 113 -95 305v651h180v-579q0 -180 50 -261t178 -81t203 82q55 60 89 133v706h181v-1044z" />
    <glyph glyph-name="v" unicode="v" horiz-adv-x="956" 
d="M956 1044l-372 -1044h-213l-371 1044h197l282 -862h4l293 862h180z" />
    <glyph glyph-name="w" unicode="w" horiz-adv-x="1593" 
d="M1597 1044l-337 -1044h-209l-254 883h-4l-248 -883h-209l-336 1044h197l247 -872h5l249 872h213l244 -872h4l262 872h176z" />
    <glyph glyph-name="x" unicode="x" horiz-adv-x="956" 
d="M961 0h-222l-262 418l-264 -418h-213l375 549l-340 495h225l232 -376l235 376h201l-334 -495z" />
    <glyph glyph-name="y" unicode="y" horiz-adv-x="956" 
d="M408 0l-408 1044h199l301 -806h4l270 806h182l-520 -1429h-172z" />
    <glyph glyph-name="z" unicode="z" horiz-adv-x="878" 
d="M836 0h-793v156l571 741h-544v147h747v-155l-571 -742h590v-147z" />
    <glyph glyph-name="braceleft" unicode="{" horiz-adv-x="659" 
d="M627 -287h-152q-85 0 -155 70t-70 186v369q0 102 -52 164t-122 61v135q70 0 122 62t52 158v374q0 117 71 187t154 69h152v-135h-109q-98 0 -98 -162v-364q0 -121 -62 -181t-125 -73v-4q55 -9 100 -47q85 -71 87 -213v-359q0 -162 98 -162h109v-135z" />
    <glyph glyph-name="bar" unicode="|" horiz-adv-x="454" 
d="M313 -385h-172v1921h172v-1921z" />
    <glyph glyph-name="braceright" unicode="}" horiz-adv-x="659" 
d="M584 563q-70 0 -122 -61t-52 -158v-375q0 -117 -71 -187t-155 -69h-151v135h108q98 0 99 162v365q0 121 61 181t125 73v4q-54 9 -100 46q-86 70 -86 214v358q0 162 -99 162h-108v135h151q84 0 155 -70t71 -186v-368q0 -102 52 -164t122 -62v-135z" />
    <glyph glyph-name="asciitilde" unicode="~" horiz-adv-x="1228" 
d="M997 430q-72 -62 -172 -63q-100 0 -266 86q-113 55 -164 55q-88 0 -170 -131l-104 80q39 88 110 150q72 62 167 63t241 -71q147 -71 195 -71q88 0 170 131l104 -79q-39 -88 -111 -150z" />
    <glyph glyph-name="nbspace" unicode="&#xa0;" horiz-adv-x="569" 
 />
    <glyph glyph-name="sterling" unicode="&#xa3;" 
d="M799 1313q-164 -1 -241 -99t-77 -268v-102h338v-115h-338v-561h516v-168h-903v168h195v561h-170v115h170v119q0 229 126 373t367 145q106 0 228 -39v-178q-107 49 -211 49z" />
    <glyph glyph-name="brokenbar" unicode="&#xa6;" horiz-adv-x="454" 
d="M313 -385h-172v614h172v-614zM313 922h-172v614h172v-614z" />
    <glyph glyph-name="section" unicode="&#xa7;" 
d="M313 678q0 -58 48 -106q49 -48 103 -72t136 -50q82 -28 107 -38q78 90 77 157q1 113 -153 181q-35 16 -116 44t-122 48q-80 -61 -80 -164zM950 106q0 -124 -78 -210q-140 -154 -393 -154q-184 0 -327 51v187q141 -72 354 -72q100 0 176 50t76 132t-94 132q-94 51 -220 85
q-145 53 -227 126t-82 204q0 168 154 260q-145 80 -145 245t132 253q133 88 281 88t307 -39v-187q-133 57 -258 58q-179 0 -242 -79q-28 -34 -28 -81q0 -86 98 -139q70 -39 173 -71q180 -57 269 -129t89 -206q0 -86 -35 -141t-115 -123q135 -88 135 -240z" />
    <glyph glyph-name="dieresis" unicode="&#xa8;" horiz-adv-x="493" 
d="M152 1260h-185v198h185v-198zM530 1260h-184v198h184v-198z" />
    <glyph glyph-name="copyright" unicode="&#xa9;" horiz-adv-x="1638" 
d="M864 289q-207 0 -332 121q-124 120 -124 320t128 322t328 122q100 0 187 -37v-111q-84 45 -183 45q-152 0 -244 -95t-94 -246q0 -151 96 -245t223 -94q128 0 210 41v-113q-80 -30 -195 -30zM819 1352q-256 0 -437 -182t-181 -439q0 -256 182 -439t437 -183t436 183
t182 439q0 257 -182 439t-437 182zM819 1483q311 0 531 -220q220 -219 221 -531q-1 -312 -221 -534t-530 -221q-310 -1 -530 221t-220 533t219 531t530 221z" />
    <glyph glyph-name="guillemotleft" unicode="&#xab;" horiz-adv-x="1024" 
d="M541 135h-170l-291 416l291 416h170l-269 -416zM942 135h-168l-291 416l291 416h168l-266 -416z" />
    <glyph glyph-name="logicalnot" unicode="&#xac;" horiz-adv-x="1228" 
d="M1133 217h-172v428h-865v172h1037v-600z" />
    <glyph glyph-name="registered" unicode="&#xae;" horiz-adv-x="819" 
d="M373 1092h-37v-189h-62v422h101q76 -1 121 -23t45 -96t-82 -102l116 -201h-67l-109 191q-10 -2 -26 -2zM477 1210h2q0 63 -90 64h-55v-131h47q96 -1 96 67zM711 1114h2q0 125 -89 214t-214 89t-213 -89t-88 -214t88 -214t213 -89t213 89t88 214zM410 1483q154 1 262 -107
t108 -261t-108 -263t-262 -109q-152 0 -260 109q-108 110 -109 262t107 260t262 109z" />
    <glyph glyph-name="degree" unicode="&#xb0;" horiz-adv-x="819" 
d="M410 1014q72 0 123 50t51 123t-50 121t-124 48t-124 -48t-50 -121t51 -123t123 -50zM709 1186q0 -123 -88 -209t-211 -86t-211 86t-88 209t88 209t211 86t211 -86t88 -209z" />
    <glyph glyph-name="plusminus" unicode="&#xb1;" horiz-adv-x="1228" 
d="M1133 0h-1037v172h1037v-172zM1133 555h-433v-311h-172v311h-432v172h432v309h172v-309h433v-172z" />
    <glyph glyph-name="acute" unicode="&#xb4;" horiz-adv-x="493" 
d="M473 1481l-266 -295h-129l184 295h211z" />
    <glyph glyph-name="mu" unicode="&#xb5;" horiz-adv-x="1138" 
d="M1020 0h-172v170h-4q-60 -76 -150 -135t-172 -60q-137 0 -223 103v-463h-180v1429h180v-784q25 -38 47 -64t70 -50q47 -24 108 -23q98 0 182 62q83 62 134 153v706h180v-1044z" />
    <glyph glyph-name="paragraph" unicode="&#xb6;" horiz-adv-x="1228" 
d="M920 -233v1548h-203v-1548h-180v931q-207 0 -329 104t-122 269q0 387 492 387h522v-1691h-180z" />
    <glyph glyph-name="periodcentered" unicode="&#xb7;" horiz-adv-x="569" 
d="M393 483h-217v217h217v-217z" />
    <glyph glyph-name="guillemotright" unicode="&#xbb;" horiz-adv-x="1024" 
d="M539 551l-291 -416h-168l266 416l-266 416h168zM942 551l-291 -416h-170l269 416l-269 416h170z" />
    <glyph glyph-name="divide" unicode="&#xf7;" horiz-adv-x="1228" 
d="M721 0h-217v217h217v-217zM721 827h-217v217h217v-217zM1133 432h-1037v172h1037v-172z" />
    <glyph glyph-name="dotlessi" unicode="&#x131;" horiz-adv-x="454" 
d="M317 0h-180v1044h180v-1044z" />
    <glyph glyph-name="florin" unicode="&#x192;" horiz-adv-x="1024" 
d="M907 1325q-100 0 -141 -56t-68 -188l-43 -215h260l-24 -137h-264l-144 -770q-20 -109 -42 -175q-21 -66 -61 -128q-76 -117 -274 -117q-61 0 -108 10l33 156q35 -10 67 -10q94 1 134 65t63 187l147 782h-235l20 137h238l45 221q33 166 108 280t263 114q51 0 145 -21
l-29 -149q-51 14 -90 14z" />
    <glyph glyph-name="breve" unicode="&#x2d8;" horiz-adv-x="493" 
d="M247 1188q-222 0 -284 229l133 41q29 -129 151 -129t150 129l133 -41q-61 -229 -283 -229z" />
    <glyph glyph-name="afii10023" unicode="&#x401;" 
d="M500 1579h-185v199h185v-199zM879 1579h-185v199h185v-199zM145 0v1458h879v-168h-686v-450h594v-170h-594v-502h690v-168h-883z" />
    <glyph glyph-name="afii10051" unicode="&#x402;" horiz-adv-x="1601" 
d="M1026 -25q-100 0 -164 25v166q59 -23 131 -23q164 1 257 107t93 277t-92 267t-258 97q-233 0 -331 -211v-680h-189v1290h-477v168h1227v-168h-561v-399h8q59 72 153 121t197 49q260 -1 393 -149t133 -393t-146 -395t-374 -149z" />
    <glyph glyph-name="afii10052" unicode="&#x403;" horiz-adv-x="985" 
d="M823 1827l-266 -295h-127l182 295h211zM326 1290v-1290h-193v1458h858v-168h-665z" />
    <glyph glyph-name="afii10053" unicode="&#x404;" horiz-adv-x="1300" 
d="M868 -25q-346 0 -561 208t-215 545t220 546t556 209q209 0 344 -60v-194q-150 86 -333 86q-227 0 -384 -131t-194 -344h647v-170h-653q20 -236 183 -381t390 -146q82 0 186 22t160 54v-190q-123 -54 -346 -54z" />
    <glyph glyph-name="afii10054" unicode="&#x405;" horiz-adv-x="997" 
d="M397 -25q-125 0 -303 60v184q166 -76 302 -76t228 65q91 65 91 178t-99 192q-45 37 -167 96q-121 59 -167 88q-135 86 -177 186q-26 63 -25 144q0 184 131 287t315 103t322 -50v-183q-154 66 -281 66q-286 0 -284 -209q0 -90 68 -142t219 -125t223 -141
q125 -119 125 -295q0 -217 -147 -323t-374 -105z" />
    <glyph glyph-name="afii10055" unicode="&#x406;" horiz-adv-x="497" 
d="M152 0v1458h192v-1458h-192z" />
    <glyph glyph-name="afii10056" unicode="&#x407;" horiz-adv-x="497" 
d="M152 1579h-185v199h185v-199zM530 1579h-184v199h184v-199zM152 0v1458h192v-1458h-192z" />
    <glyph glyph-name="afii10057" unicode="&#x408;" horiz-adv-x="702" 
d="M164 -25q-98 0 -164 25v164q61 -20 129 -21q131 0 184 73t54 212v1030h188v-1083q0 -176 -91 -288t-300 -112z" />
    <glyph glyph-name="afii10058" unicode="&#x409;" horiz-adv-x="2009" 
d="M1458 696h-239v-528h243q119 0 208 66t89 203q0 135 -86 197t-215 62zM1454 0h-428v1290h-477v-432q0 -340 -38 -513q-38 -172 -121 -270t-228 -98q-100 0 -166 25l2 164q150 -49 218 10q68 60 104 226t36 530v526h863v-596h258q215 0 349 -104t134 -326
q0 -432 -506 -432z" />
    <glyph glyph-name="afii10059" unicode="&#x40a;" horiz-adv-x="2009" 
d="M1458 696h-250v-528h254q119 0 208 66t89 203q0 135 -86 197t-215 62zM1454 0h-438v694h-684v-694h-193v1458h193v-596h684v596h192v-596h269q215 0 349 -104t134 -326q0 -432 -506 -432z" />
    <glyph glyph-name="afii10060" unicode="&#x40b;" horiz-adv-x="1601" 
d="M1321 0v438q0 205 -73 283t-273 78q-41 1 -165 -11t-148 -20v-768h-189v1290h-477v168h1227v-168h-561v-356q24 8 148 21t210 13q209 1 351 -104t140 -405v-459h-190z" />
    <glyph glyph-name="afii10061" unicode="&#x40c;" horiz-adv-x="1331" 
d="M926 1827l-267 -295h-127l183 295h211zM340 750v-750h-190v1458h190v-688h8l682 688h248l-700 -686l774 -772h-254l-750 750h-8z" />
    <glyph glyph-name="afii10062" unicode="&#x40e;" horiz-adv-x="1236" 
d="M620 1649q122 0 150 129l133 -41q-61 -229 -283 -229t-284 229l133 41q29 -129 151 -129zM506 0h-201l205 410l-518 1048h219l405 -840l420 840h207z" />
    <glyph glyph-name="afii10145" unicode="&#x40f;" horiz-adv-x="1478" 
d="M831 0v-334h-184v334h-510v1458h193v-1288h819v1288h192v-1458h-510z" />
    <glyph glyph-name="afii10017" unicode="&#x410;" horiz-adv-x="1406" 
d="M700 1282l-299 -750h596zM1208 0l-149 373h-721l-150 -373h-198l616 1458h203l608 -1458h-209z" />
    <glyph glyph-name="afii10018" unicode="&#x411;" horiz-adv-x="1167" 
d="M334 682v-514h186q184 0 284 103q58 59 58 143q0 158 -99 213t-222 55h-207zM516 0h-375v1458h813v-168h-620v-440h209q214 0 367 -96t153 -330q0 -424 -547 -424z" />
    <glyph glyph-name="afii10019" unicode="&#x412;" horiz-adv-x="1167" 
d="M473 672h-137v-512h160q369 0 368 246q0 188 -174 239q-93 27 -217 27zM836 1058q0 240 -281 240h-219v-467h129q218 0 295 62q76 62 76 165zM512 0h-369v1458h385q500 0 500 -364q0 -272 -295 -344v-9q150 -14 242 -107t92 -241q0 -393 -555 -393z" />
    <glyph glyph-name="afii10020" unicode="&#x413;" horiz-adv-x="985" 
d="M326 1290v-1290h-193v1458h858v-168h-665z" />
    <glyph glyph-name="afii10021" unicode="&#x414;" horiz-adv-x="1437" 
d="M1067 1290h-479l-27 -344q-18 -225 -66 -440t-116 -338h688v1122zM1243 -334v334h-1053v-334h-184v502h152q82 92 144 341t79 511l27 438h852v-1290h167v-502h-184z" />
    <glyph glyph-name="afii10022" unicode="&#x415;" 
d="M145 0v1458h879v-168h-686v-450h594v-170h-594v-502h690v-168h-883z" />
    <glyph glyph-name="afii10024" unicode="&#x416;" horiz-adv-x="2000" 
d="M1100 752v-752h-193v752h-8l-674 -752h-245l690 774l-625 684h238l616 -692h8v692h193v-692h6l616 692h240l-625 -684l688 -774h-243l-676 752h-6z" />
    <glyph glyph-name="afii10025" unicode="&#x417;" horiz-adv-x="1024" 
d="M371 -25q-137 0 -303 66v182q59 -31 154 -55t169 -23q139 0 232 65q92 65 92 187q0 279 -359 279h-61v162h53q135 0 245 68t109 200q0 209 -262 209q-145 0 -309 -72v170q155 70 339 70t306 -91t121 -282q0 -135 -78 -226t-207 -118v-8q305 -51 306 -352
q0 -211 -154 -321t-393 -110z" />
    <glyph glyph-name="afii10026" unicode="&#x418;" horiz-adv-x="1478" 
d="M1147 0v1167h-6l-799 -1167h-203v1458h193v-1173h6l801 1173h200v-1458h-192z" />
    <glyph glyph-name="afii10027" unicode="&#x419;" horiz-adv-x="1478" 
d="M744 1649q122 0 151 129l133 -41q-62 -229 -284 -229t-283 229l133 41q28 -129 150 -129zM1147 0v1167h-6l-799 -1167h-203v1458h193v-1173h6l801 1173h200v-1458h-192z" />
    <glyph glyph-name="afii10028" unicode="&#x41a;" horiz-adv-x="1331" 
d="M340 750v-750h-190v1458h190v-688h8l682 688h248l-700 -686l774 -772h-254l-750 750h-8z" />
    <glyph glyph-name="afii10029" unicode="&#x41b;" horiz-adv-x="1441" 
d="M1110 0v1290h-561v-432q0 -340 -38 -513q-38 -172 -121 -270t-228 -98q-100 0 -166 25l2 164q150 -49 218 10q68 60 104 226t36 530v526h947v-1458h-193z" />
    <glyph glyph-name="afii10030" unicode="&#x41c;" horiz-adv-x="1677" 
d="M1350 0v1212h-7l-501 -591h-4l-502 591h-8v-1212h-193v1458h230l477 -577l475 577h225v-1458h-192z" />
    <glyph glyph-name="afii10031" unicode="&#x41d;" horiz-adv-x="1478" 
d="M1149 0v670h-819v-670h-193v1458h193v-618h819v618h192v-1458h-192z" />
    <glyph glyph-name="afii10032" unicode="&#x41e;" horiz-adv-x="1669" 
d="M836 1315q-254 0 -402 -173t-147 -411q-1 -238 149 -413t402 -175t398 173t146 414t-146 413t-400 172zM837 1483q339 0 543 -214t205 -545t-203 -540t-544 -209t-547 210t-207 539t207 544t546 215z" />
    <glyph glyph-name="afii10033" unicode="&#x41f;" horiz-adv-x="1478" 
d="M1149 0v1288h-819v-1288h-193v1458h1204v-1458h-192z" />
    <glyph glyph-name="afii10034" unicode="&#x420;" horiz-adv-x="1122" 
d="M567 1290h-235v-528h229q129 0 215 61t86 197t-88 204q-88 66 -207 66zM582 594h-250v-594h-191v1458h416q506 0 506 -432q0 -220 -134 -326t-347 -106z" />
    <glyph glyph-name="afii10035" unicode="&#x421;" horiz-adv-x="1290" 
d="M883 -25q-350 0 -575 209q-224 209 -224 545t229 545t570 209q217 0 352 -60v-194q-68 39 -165 63t-179 23q-260 0 -433 -167t-173 -421t176 -419t422 -165q81 0 189 25t165 57v-190q-137 -60 -354 -60z" />
    <glyph glyph-name="afii10036" unicode="&#x422;" horiz-adv-x="1228" 
d="M711 1290v-1290h-191v1290h-524v168h1239v-168h-524z" />
    <glyph glyph-name="afii10037" unicode="&#x423;" horiz-adv-x="1236" 
d="M506 0h-201l205 410l-518 1048h219l405 -840l420 840h207z" />
    <glyph glyph-name="afii10038" unicode="&#x424;" horiz-adv-x="1638" 
d="M725 1208q-205 -6 -325 -133t-120 -323t120 -324q120 -127 325 -129v909zM1360 752q0 198 -120 324t-325 132v-909q205 2 325 129t120 324zM915 -16h-190v166q-274 4 -460 175q-185 171 -185 436t178 427t467 170v115h190v-115q289 -8 467 -170t178 -427t-185 -436
q-186 -171 -460 -175v-166z" />
    <glyph glyph-name="afii10039" unicode="&#x425;" horiz-adv-x="1290" 
d="M1067 0l-434 631l-424 -631h-229l534 760l-487 698h231l393 -569l393 569h218l-490 -696l537 -762h-242z" />
    <glyph glyph-name="afii10040" unicode="&#x426;" horiz-adv-x="1478" 
d="M1280 -334v334h-1139v1458h193v-1290h792v1290h193v-1290h145v-502h-184z" />
    <glyph glyph-name="afii10041" unicode="&#x427;" horiz-adv-x="1263" 
d="M934 0v621q-20 -7 -146 -21t-212 -14t-180 22q-214 51 -276 235q-36 101 -36 253v356h192v-336q0 -204 73 -282t272 -78q37 0 163 11t150 19v672h192v-1458h-192z" />
    <glyph glyph-name="afii10042" unicode="&#x428;" horiz-adv-x="2164" 
d="M141 0v1458h193v-1290h653v1290h193v-1290h653v1290h192v-1458h-1884z" />
    <glyph glyph-name="afii10043" unicode="&#x429;" horiz-adv-x="2181" 
d="M1987 -334v334h-1846v1458h193v-1290h653v1290h193v-1290h653v1290h192v-1290h146v-502h-184z" />
    <glyph glyph-name="afii10044" unicode="&#x42a;" horiz-adv-x="1417" 
d="M877 717h-250v-549h254q117 0 207 71t90 209t-87 203q-87 66 -214 66zM872 0h-438v1290h-432v168h625v-573h270q211 0 346 -110t135 -336q0 -227 -135 -333t-371 -106z" />
    <glyph glyph-name="afii10045" unicode="&#x42b;" horiz-adv-x="1648" 
d="M578 717h-250v-549h254q116 0 206 71t90 209t-86 203q-87 66 -214 66zM573 0h-438v1458h193v-573h268q213 0 348 -110t135 -336t-136 -333q-137 -106 -370 -106zM1321 0v1458h192v-1458h-192z" />
    <glyph glyph-name="afii10046" unicode="&#x42c;" horiz-adv-x="1138" 
d="M584 717h-250v-549h254q117 0 207 71t90 209t-87 203q-87 66 -214 66zM580 0h-439v1458h193v-573h268q213 0 348 -110t135 -336q0 -227 -136 -333t-369 -106z" />
    <glyph glyph-name="afii10047" unicode="&#x42d;" horiz-adv-x="1300" 
d="M432 -25q-221 0 -344 54v190q54 -33 158 -55t186 -21q229 -1 392 145t184 382h-654v170h645q-35 213 -191 344q-157 131 -384 131q-184 0 -334 -86v194q135 59 342 60q338 0 558 -208t220 -546t-215 -546t-563 -208z" />
    <glyph glyph-name="afii10048" unicode="&#x42e;" horiz-adv-x="2029" 
d="M1255 1315q-231 0 -358 -172t-127 -414q0 -337 211 -499q113 -87 275 -87t275 87q114 87 163 215t49 284t-52 286t-165 215t-271 85zM1264 -25q-314 -1 -495 189t-200 506h-237v-670h-193v1458h193v-618h241q31 289 211 466t486 177t491 -212t185 -546t-184 -542
t-498 -208z" />
    <glyph glyph-name="afii10049" unicode="&#x42f;" horiz-adv-x="1177" 
d="M852 1290h-217q-143 0 -220 -74t-77 -198q0 -125 86 -198t252 -72h176v542zM852 0v594h-158l-456 -594h-246l495 623q-154 18 -253 139t-99 249q0 254 154 352q154 97 370 95h385v-1458h-192z" />
    <glyph glyph-name="afii10065" unicode="&#x430;" horiz-adv-x="1069" 
d="M620 520q-340 0 -340 -222q0 -75 62 -125q61 -50 135 -50t160 42t137 99v219q-96 37 -154 37zM952 0h-159v141h-5q-46 -47 -82 -77t-104 -59q-68 -30 -139 -30q-179 -1 -277 89t-98 241q0 82 35 147q35 66 85 102q134 98 339 97q125 0 227 -41v80q0 231 -254 232
q-166 0 -311 -123v153q155 117 353 117t294 -104t96 -320v-645z" />
    <glyph glyph-name="afii10066" unicode="&#x431;" horiz-adv-x="1251" 
d="M973 514q0 168 -94 278t-246 110t-246 -110t-94 -278t91 -280t249 -112t249 112t91 280zM1165 514q0 -229 -146 -384t-388 -155t-386 167t-145 436q0 220 31 372t108 266q148 219 545 232q233 10 287 33v-183q-70 -18 -276 -24q-279 -10 -409 -119t-144 -373h8
q33 104 144 184q112 79 259 78q229 0 371 -150q141 -151 141 -380z" />
    <glyph glyph-name="afii10067" unicode="&#x432;" horiz-adv-x="1069" 
d="M799 317q-1 76 -57 114t-150 38h-293v-322h301q199 0 199 170zM557 612q81 0 137 37t56 109t-54 106t-139 33h-258v-285h258zM991 284q1 -132 -107 -208t-259 -76h-506v1044h473q154 0 252 -70t98 -174t-56 -165t-122 -78v-4q76 -5 152 -71t75 -198z" />
    <glyph glyph-name="afii10068" unicode="&#x433;" horiz-adv-x="819" 
d="M811 897h-502v-897h-180v1044h682v-147z" />
    <glyph glyph-name="afii10069" unicode="&#x434;" horiz-adv-x="1187" 
d="M856 147v750h-395l-8 -190q-8 -168 -41 -327t-76 -233h520zM1159 -307h-172v307h-794v-307h-173v454h123q47 59 86 217t50 377l14 303h743v-897h123v-454z" />
    <glyph glyph-name="afii10070" unicode="&#x435;" horiz-adv-x="1138" 
d="M862 616q0 126 -79 216t-207 90t-211 -94q-82 -94 -91 -212h588zM1053 481h-779q0 -154 112 -256t259 -102q87 0 193 33t147 65v-180q-178 -66 -348 -66q-268 0 -412 152q-143 151 -143 397t141 396t365 150t345 -144q120 -143 120 -377v-68z" />
    <glyph glyph-name="afii10072" unicode="&#x436;" horiz-adv-x="1511" 
d="M666 555h-4l-463 -555h-213l481 569l-451 475h215l431 -475h4v475h180v-475h4l430 475h215l-451 -475l482 -569h-213l-463 555h-4v-555h-180v555z" />
    <glyph glyph-name="afii10073" unicode="&#x437;" horiz-adv-x="929" 
d="M817 305q0 -153 -120 -241q-121 -88 -321 -88t-308 55v166q53 -33 140 -53t180 -21q93 0 166 48t73 132q0 174 -205 174h-115v146h107q84 0 141 40q57 41 57 115t-60 109t-142 35t-170 -27t-131 -55v164q161 66 323 66t263 -69q101 -68 102 -198q0 -92 -65 -160t-157 -86
v-2q102 -5 172 -69t70 -181z" />
    <glyph glyph-name="afii10074" unicode="&#x438;" horiz-adv-x="1138" 
d="M1020 0h-180v807h-6l-506 -807h-209v1044h180v-804h6l506 804h209v-1044z" />
    <glyph glyph-name="afii10075" unicode="&#x439;" horiz-adv-x="1138" 
d="M570 1188q-222 0 -283 229l133 41q28 -129 150 -129t151 129l133 -41q-62 -229 -284 -229zM1020 0h-180v807h-6l-506 -807h-209v1044h180v-804h6l506 804h209v-1044z" />
    <glyph glyph-name="afii10076" unicode="&#x43a;" horiz-adv-x="1048" 
d="M313 0h-180v1044h180v-481h4l465 481h226l-490 -485l547 -559h-231l-517 541h-4v-541z" />
    <glyph glyph-name="afii10077" unicode="&#x43b;" horiz-adv-x="1138" 
d="M1010 0h-181v897h-385v-297q0 -296 -47 -410q-23 -55 -57 -105q-69 -103 -219 -101q-61 0 -109 14v158q33 -14 99 -15q96 0 125 122t28 480v301h746v-1044z" />
    <glyph glyph-name="afii10078" unicode="&#x43c;" horiz-adv-x="1306" 
d="M1180 0h-179v819h-4l-342 -401h-2l-344 401h-2v-819h-180v1044h207l319 -391h2l318 391h207v-1044z" />
    <glyph glyph-name="afii10079" unicode="&#x43d;" horiz-adv-x="1138" 
d="M1012 0h-181v477h-524v-477h-180v1044h180v-421h524v421h181v-1044z" />
    <glyph glyph-name="afii10080" unicode="&#x43e;" horiz-adv-x="1251" 
d="M625 123q162 1 256 115t94 285t-97 285t-253 114t-253 -114q-98 -114 -98 -285t94 -285t257 -115zM624 1069q250 1 397 -153q146 -154 146 -388q1 -234 -149 -394q-150 -159 -394 -159t-393 159q-149 160 -149 394t146 388t396 153z" />
    <glyph glyph-name="afii10081" unicode="&#x43f;" horiz-adv-x="1138" 
d="M1012 0h-181v897h-524v-897h-180v1044h885v-1044z" />
    <glyph glyph-name="afii10082" unicode="&#x440;" horiz-adv-x="1251" 
d="M627 123q158 -1 250 113t92 286t-92 286t-242 114t-225 -65q-39 -34 -58 -56q-18 -23 -47 -66v-413q113 -199 322 -199zM1161 534q0 -236 -140 -397q-140 -162 -368 -162q-98 1 -193 47t-151 113h-4v-520h-178v1429h170v-147h4q159 172 365 172t351 -149
q144 -150 144 -386z" />
    <glyph glyph-name="afii10083" unicode="&#x441;" horiz-adv-x="985" 
d="M664 123q102 0 233 76v-168q-131 -55 -254 -56q-241 0 -399 160q-158 161 -158 397t156 387t405 150q115 0 238 -49v-164q-127 63 -228 66q-176 0 -278 -115q-103 -115 -103 -279t106 -284t282 -121z" />
    <glyph glyph-name="afii10084" unicode="&#x442;" horiz-adv-x="909" 
d="M901 897h-356v-897h-180v897h-357v147h893v-147z" />
    <glyph glyph-name="afii10085" unicode="&#x443;" horiz-adv-x="956" 
d="M408 0l-408 1044h199l301 -806h4l270 806h182l-520 -1429h-172z" />
    <glyph glyph-name="afii10086" unicode="&#x444;" horiz-adv-x="1478" 
d="M649 115v815q-164 0 -267 -123t-103 -284t100 -285t270 -123zM829 115q171 -1 271 123t100 285t-103 284t-268 123v-815zM829 1069q252 1 408 -155t156 -386t-160 -392q-160 -161 -404 -161v-360h-180v360q-243 0 -403 161q-160 162 -160 392t156 386t407 155v389h180
v-389z" />
    <glyph glyph-name="afii10087" unicode="&#x445;" horiz-adv-x="956" 
d="M961 0h-222l-262 418l-264 -418h-213l375 549l-340 495h225l232 -376l235 376h201l-334 -495z" />
    <glyph glyph-name="afii10088" unicode="&#x446;" horiz-adv-x="1185" 
d="M1165 -307h-172v307h-866v1044h180v-897h541v897h180v-897h137v-454z" />
    <glyph glyph-name="afii10089" unicode="&#x447;" horiz-adv-x="1069" 
d="M942 0h-180v440q-35 -16 -121 -34t-156 -19q-201 0 -291 89t-92 290v278h181v-225q0 -153 45 -219t192 -65q68 0 140 15t102 32v462h180v-1044z" />
    <glyph glyph-name="afii10090" unicode="&#x448;" horiz-adv-x="1665" 
d="M1536 0h-1407v1044h180v-897h432v897h181v-897h434v897h180v-1044z" />
    <glyph glyph-name="afii10091" unicode="&#x449;" horiz-adv-x="1691" 
d="M1671 -307h-170v307h-1372v1044h180v-897h432v897h181v-897h434v897h180v-897h135v-454z" />
    <glyph glyph-name="afii10092" unicode="&#x44a;" horiz-adv-x="1228" 
d="M971 322q0 176 -199 176h-270v-351h282q84 1 136 47t51 128zM809 645q152 1 253 -81t101 -235t-100 -241t-260 -88h-481v897h-322v147h502v-399h307z" />
    <glyph glyph-name="afii10093" unicode="&#x44b;" horiz-adv-x="1439" 
d="M309 498v-351h283q84 1 135 47t51 128q0 176 -198 176h-271zM616 645q152 1 254 -81t101 -235t-101 -241t-260 -88h-481v1044h180v-399h307zM1311 0h-181v1044h181v-1044z" />
    <glyph glyph-name="afii10094" unicode="&#x44c;" horiz-adv-x="1052" 
d="M315 498v-351h283q84 1 135 47t51 128q0 176 -198 176h-271zM623 645q152 1 253 -81t101 -235t-100 -241t-261 -88h-481v1044h180v-399h308z" />
    <glyph glyph-name="afii10095" unicode="&#x44d;" horiz-adv-x="985" 
d="M328 922q-105 0 -228 -66v164q123 49 238 49q250 -1 406 -151t155 -386q0 -236 -158 -397q-158 -160 -399 -160q-123 0 -254 56v168q131 -76 234 -76q162 0 264 102t121 248h-433v148h424q-27 133 -124 217t-246 84z" />
    <glyph glyph-name="afii10096" unicode="&#x44e;" horiz-adv-x="1617" 
d="M1010 123q158 1 244 119t85 281q0 163 -90 281q-89 118 -239 118t-240 -118t-90 -281t86 -281t244 -119zM1024 1069q224 -1 366 -155t142 -388t-144 -392q-144 -159 -372 -159q-228 1 -370 145t-157 357h-180v-477h-180v1044h180v-421h185q31 199 168 323
q138 124 362 123z" />
    <glyph glyph-name="afii10097" unicode="&#x44f;" horiz-adv-x="1069" 
d="M461 1044h475v-1044h-180v393h-189l-348 -393h-235l387 422v2q-111 14 -185 101t-73 196q0 139 98 231t250 92zM756 530v367h-275q-78 0 -127 -55t-49 -132q1 -77 59 -128t142 -52h250z" />
    <glyph glyph-name="afii10071" unicode="&#x451;" horiz-adv-x="1138" 
d="M500 1260h-185v198h185v-198zM879 1260h-185v198h185v-198zM862 616q0 126 -79 216t-207 90t-211 -94q-82 -94 -91 -212h588zM1053 481h-779q0 -154 112 -256t259 -102q87 0 193 33t147 65v-180q-178 -66 -348 -66q-268 0 -412 152q-143 151 -143 397t141 396t365 150
t345 -144q120 -143 120 -377v-68z" />
    <glyph glyph-name="afii10099" unicode="&#x452;" horiz-adv-x="1175" 
d="M625 993q233 1 366 -149t133 -366t-130 -378t-359 -161q-63 0 -113 8v155q35 -6 78 -6q143 0 239 117q95 117 95 271t-82 257q-82 105 -253 105t-267 -125v-721h-180v1143h-111v147h111v168h180v-168h530v-147h-530v-279q113 129 293 129z" />
    <glyph glyph-name="afii10100" unicode="&#x453;" horiz-adv-x="819" 
d="M705 1481l-267 -295h-129l185 295h211zM811 897h-502v-897h-180v1044h682v-147z" />
    <glyph glyph-name="afii10101" unicode="&#x454;" horiz-adv-x="985" 
d="M713 621v-148h-432q18 -145 120 -247t265 -103q102 0 233 76v-168q-131 -55 -254 -56q-241 0 -399 160q-158 161 -158 397t156 387t405 150q115 0 238 -49v-164q-127 63 -228 66q-151 0 -247 -84t-123 -217h424z" />
    <glyph glyph-name="afii10102" unicode="&#x455;" horiz-adv-x="819" 
d="M737 295q1 -156 -107 -238t-272 -82t-274 56v170q55 -35 131 -57q77 -22 143 -22t126 40q60 39 61 117q0 43 -31 79q-30 36 -62 54t-100 51t-98 50t-80 54q-94 71 -92 189q0 154 102 234t240 79q138 0 264 -43v-160q-36 18 -110 36t-136 20q-62 0 -115 -34
q-55 -34 -55 -102t61 -108q37 -25 118 -64q83 -39 115 -57q116 -64 150 -145q21 -51 21 -117z" />
    <glyph glyph-name="afii10103" unicode="&#x456;" horiz-adv-x="454" 
d="M326 1249h-197v209h197v-209zM317 0h-180v1044h180v-1044z" />
    <glyph glyph-name="afii10104" unicode="&#x457;" horiz-adv-x="454" 
d="M129 1260h-184v198h184v-198zM508 1260h-184v198h184v-198zM317 0h-180v1044h180v-1044z" />
    <glyph glyph-name="afii10105" unicode="&#x458;" horiz-adv-x="454" 
d="M326 1249h-197v209h197v-209zM319 -12q0 -212 -67 -300q-29 -38 -84 -66q-54 -28 -124 -28t-120 9v155q33 -6 78 -6q137 0 137 217v1075h180v-1056z" />
    <glyph glyph-name="afii10106" unicode="&#x459;" horiz-adv-x="1705" 
d="M1282 147q176 0 176 165t-188 165h-281v-330h293zM1307 625q152 0 248 -77t96 -230q1 -154 -95 -236t-256 -82h-491v897h-365v-297q0 -296 -47 -410q-23 -55 -57 -105q-69 -103 -219 -101q-61 0 -109 14v158q33 -14 99 -15q96 0 125 122t28 480v301h725v-419h318z" />
    <glyph glyph-name="afii10107" unicode="&#x45a;" horiz-adv-x="1705" 
d="M1282 147q176 0 176 165t-188 165h-281v-330h293zM1307 625q152 0 248 -77t96 -230q1 -154 -95 -236t-256 -82h-491v479h-502v-479h-180v1044h180v-419h502v419h180v-419h318z" />
    <glyph glyph-name="afii10108" unicode="&#x45b;" horiz-adv-x="1138" 
d="M1032 0h-180v516q0 182 -48 263t-177 81q-82 0 -147 -36q-64 -36 -90 -68t-58 -86v-670h-180v1143h-111v147h111v168h180v-168h530v-147h-530v-301h4q45 63 131 114t203 52q362 0 362 -428v-580z" />
    <glyph glyph-name="afii10109" unicode="&#x45c;" horiz-adv-x="1048" 
d="M801 1481l-266 -295h-129l184 295h211zM313 0h-180v1044h180v-481h4l465 481h226l-490 -485l547 -559h-231l-517 541h-4v-541z" />
    <glyph glyph-name="afii10110" unicode="&#x45e;" horiz-adv-x="956" 
d="M501 1188q-222 0 -284 229l133 41q29 -129 151 -129t150 129l133 -41q-61 -229 -283 -229zM408 0l-408 1044h199l301 -806h4l270 806h182l-520 -1429h-172z" />
    <glyph glyph-name="afii10193" unicode="&#x45f;" horiz-adv-x="1138" 
d="M655 -307h-172v307h-356v1044h180v-897h524v897h181v-1044h-357v-307z" />
    <glyph glyph-name="afii10050" unicode="&#x490;" horiz-adv-x="985" 
d="M326 1290v-1290h-193v1458h676v334h184v-502h-667z" />
    <glyph glyph-name="afii10098" unicode="&#x491;" horiz-adv-x="819" 
d="M811 897h-502v-897h-180v1044h510v308h172v-455z" />
    <glyph glyph-name="endash" unicode="&#x2013;" horiz-adv-x="1024" 
d="M1024 483h-1024v135h1024v-135z" />
    <glyph glyph-name="emdash" unicode="&#x2014;" horiz-adv-x="2048" 
d="M2048 483h-2048v135h2048v-135z" />
    <glyph glyph-name="quoteleft" unicode="&#x2018;" horiz-adv-x="569" 
d="M455 1458l-127 -491h-213l170 491h170z" />
    <glyph glyph-name="quoteright" unicode="&#x2019;" horiz-adv-x="569" 
d="M455 1458l-176 -491h-164l125 491h215z" />
    <glyph glyph-name="quotesinglbase" unicode="&#x201a;" horiz-adv-x="569" 
d="M455 217l-170 -489h-170l129 489h211z" />
    <glyph glyph-name="quotedblleft" unicode="&#x201c;" horiz-adv-x="948" 
d="M451 1458l-125 -491h-215l174 491h166zM836 1458l-129 -491h-211l168 491h172z" />
    <glyph glyph-name="quotedblright" unicode="&#x201d;" horiz-adv-x="948" 
d="M451 1458l-170 -491h-170l129 491h211zM836 1458l-172 -491h-168l127 491h213z" />
    <glyph glyph-name="quotedblbase" unicode="&#x201e;" horiz-adv-x="948" 
d="M451 217l-170 -489h-170l129 489h211zM836 217l-172 -489h-168l127 489h213z" />
    <glyph glyph-name="dagger" unicode="&#x2020;" 
d="M979 930h-346v-930h-170v930h-344v135h344v393h170v-393h346v-135z" />
    <glyph glyph-name="daggerdbl" unicode="&#x2021;" 
d="M979 512v-135h-346v-377h-170v377h-344v135h344v459h-344v135h344v352h170v-352h346v-135h-346v-459h346z" />
    <glyph glyph-name="bullet" unicode="&#x2022;" horiz-adv-x="1024" 
d="M512 1071q150 0 254 -103t104 -253t-104 -254q-104 -105 -254 -105t-253 104t-103 255q0 150 103 253t253 103z" />
    <glyph glyph-name="ellipsis" unicode="&#x2026;" horiz-adv-x="2048" 
d="M451 0h-218v217h218v-217zM1133 0h-218v217h218v-217zM1815 0h-218v217h218v-217z" />
    <glyph glyph-name="perthousand" unicode="&#x2030;" horiz-adv-x="2048" 
d="M1726 664q-143 0 -143 -276t145 -275q145 0 146 274q0 198 -64 250q-33 27 -84 27zM1728 -23q-166 0 -240 116t-75 294q0 414 315 414t316 -414q0 -178 -75 -294t-241 -116zM315 1346q-145 0 -145 -276t144 -275q144 0 145 276q0 195 -63 248q-32 27 -81 27zM1034 664
q-143 0 -143 -276t145 -275q145 0 146 274q0 198 -64 250q-33 27 -84 27zM314 657q-166 0 -240 116t-74 298q0 410 314 410t315 -410q0 -182 -75 -298t-240 -116zM295 -45h-143l895 1548h141zM1036 -23q-166 0 -240 116t-75 294q0 414 315 414t316 -414q0 -178 -75 -294
t-241 -116z" />
    <glyph glyph-name="guilsinglleft" unicode="&#x2039;" horiz-adv-x="569" 
d="M502 135h-170l-291 416l291 416h170l-269 -416z" />
    <glyph glyph-name="guilsinglright" unicode="&#x203a;" horiz-adv-x="569" 
d="M528 551l-290 -416h-168l266 416l-266 416h168z" />
    <glyph glyph-name="Euro" unicode="&#x20ac;" horiz-adv-x="1228" 
d="M862 143q76 0 165 24t149 58v-190q-137 -59 -314 -60q-307 0 -507 165t-240 450h-101v115h90v28q0 43 2 64h-92v114h109q53 262 253 417t486 155q176 0 340 -72l-76 -158q-160 61 -256 62q-207 0 -349 -110t-193 -294h612l-41 -114h-592q-2 -23 -2 -68v-24h569l-40 -115
h-515q39 -203 187 -325t356 -122z" />
    <glyph glyph-name="afii61352" unicode="&#x2116;" horiz-adv-x="2232" 
d="M1772 1090q-84 0 -130 -58t-47 -146q0 -88 43 -144t134 -56q174 0 174 201q0 87 -45 145t-129 58zM358 1214v-1214h-192v1458h260l661 -1198h9v1198h192v-1458h-250l-673 1214h-7zM1419 246v157h705v-157h-705zM1772 561q-156 0 -248 94q-92 93 -92 235t91 232t249 90
t248 -90t91 -231t-91 -235t-248 -95z" />
    <glyph glyph-name="trademark" unicode="&#x2122;" horiz-adv-x="2048" 
d="M831 1356h-262v-740h-118v740h-263v102h643v-102zM1683 616h-118v725l-260 -233h-5l-258 231v-723h-118v842h149l232 -213l229 213h149v-842z" />
    <glyph glyph-name="Delta" unicode="&#x2206;" horiz-adv-x="1343" 
d="M1065 111l-391 997l-443 -997h834zM1300 0h-1243l660 1499z" />
    <glyph glyph-name="radical" unicode="&#x221a;" horiz-adv-x="1062" 
d="M1065 1610l-432 -2048h-164l-330 678l-96 -47l-63 133l241 114l303 -635l371 1805h170z" />
    <glyph glyph-name="infinity" unicode="&#x221e;" horiz-adv-x="1511" 
d="M356 721q-68 -1 -115 -63q-48 -62 -48 -131t56 -117t130 -50q74 0 121 31q48 31 90 73l78 79q-152 131 -198 155t-114 23zM1134 360q75 0 128 50t53 120t-47 130t-127 61q-23 0 -41 -3t-32 -5q-14 -1 -34 -13q-18 -12 -28 -17t-34 -25t-35 -29q-11 -10 -43 -40t-50 -46
q106 -111 160 -147t130 -36zM1446 550q0 -120 -83 -218t-213 -98t-245 85q-114 86 -149 134l-32 -32q-30 -30 -43 -41t-47 -40t-112 -67q-77 -38 -184 -39q-107 -2 -192 96t-85 219q1 121 91 213t200 92t184 -44q75 -44 220 -177q141 133 216 177t169 44q127 0 216 -92
t89 -212z" />
    <glyph glyph-name="approxequal" unicode="&#x2248;" horiz-adv-x="1228" 
d="M231 464q72 62 172 62t267 -86q33 -16 48 -22l40 -16q47 -17 76 -17q88 0 170 131l104 -80q-39 -88 -111 -150t-166 -63t-238 69q-143 69 -198 73q-88 0 -170 -132l-104 80q39 88 110 151zM395 754q-88 0 -170 -131l-104 79q39 88 110 151q72 62 172 62t267 -86
q113 -55 164 -55q88 0 170 131l104 -80q-39 -88 -111 -150t-166 -63t-241 71q-146 71 -195 71z" />
    <glyph glyph-name="notequal" unicode="&#x2260;" horiz-adv-x="1228" 
d="M1157 219h-608l-127 -221h-180l127 221h-248v172h350l145 254h-495v172h596l129 223h180l-129 -223h260v-172h-360l-148 -254h508v-172z" />
    <glyph glyph-name="lessequal" unicode="&#x2264;" horiz-adv-x="1228" 
d="M100 -55v151h1028v-151h-1028zM100 526v152l1028 389v-166l-798 -299l798 -297v-166z" />
    <glyph glyph-name="greaterequal" unicode="&#x2265;" horiz-adv-x="1228" 
d="M100 -55v151h1028v-151h-1028zM100 139v166l801 297l-801 299v166l1028 -389v-152z" />
    <glyph glyph-name="acute.cap" horiz-adv-x="493" 
d="M475 1827l-266 -295h-127l182 295h211z" />
    <glyph glyph-name="hyphenminus" horiz-adv-x="681" 
d="M602 475h-522v152h522v-152z" />
    <glyph glyph-name="breve.cap" horiz-adv-x="493" 
d="M249 1649q122 0 150 129l133 -41q-61 -229 -283 -229t-284 229l133 41q29 -129 151 -129z" />
    <glyph glyph-name="dieresis.cap" horiz-adv-x="493" 
d="M152 1579h-185v199h185v-199zM530 1579h-184v199h184v-199z" />
    </font>
</defs>
</svg>
